<svg xmlns="http://www.w3.org/2000/svg" viewBox="0 0 50.63 41.25"><defs><style>.cls-1{fill:#fff;}</style></defs><title>fr_qanda</title><g id="Lag_2" data-name="Lag 2"><g id="Lag_1-2" data-name="Lag 1"><path class="cls-1" d="M9.21,0C3.17,0,0,3.7,0,9.59v9.93c0,5.89,3.71,9.59,9.21,9.59h0L12,34.4h6.42l-3.68-6.88a9.44,9.44,0,0,0,3.68-8V9.59C18.42,3.7,14.7,0,9.21,0Zm3.6,19.39c0,2.54-1.36,4.13-3.6,4.13s-3.6-1.59-3.6-4.13V9.72c0-2.54,1.36-4.13,3.6-4.13s3.6,1.59,3.6,4.13Z"/><path class="cls-1" d="M42.42,13h-3L31.32,41.25h2.9L36,34.75h9.67l1.86,6.5h3.06ZM36.81,31.91l4-14.49L45,31.91Z"/><path class="cls-1" d="M24.83,21a1.84,1.84,0,1,1,3.67,0v.29h1.18v-.23A3,3,0,1,0,23.6,21,2.82,2.82,0,0,0,25,23.65a3,3,0,0,0-1.84,3A3.24,3.24,0,0,0,26.7,30a3.29,3.29,0,0,0,3.37-3.6V24.21h1.1V23.13H26.94A1.87,1.87,0,0,1,24.83,21Zm4.07,5.42a2.14,2.14,0,0,1-2.17,2.39,2.11,2.11,0,0,1-2.27-2.34,2.21,2.21,0,0,1,2.43-2.3h2Z"/></g></g></svg>