<?xml version="1.0" encoding="utf-8"?>
<!-- Generator: Adobe Illustrator 13.0.2, SVG Export Plug-In . SVG Version: 6.00 Build 14948)  -->
<!DOCTYPE svg PUBLIC "-//W3C//DTD SVG 1.1//EN" "http://www.w3.org/Graphics/SVG/1.1/DTD/svg11.dtd">
<svg version="1.1" id="Calque_1" xmlns="http://www.w3.org/2000/svg" xmlns:xlink="http://www.w3.org/1999/xlink" x="0px" y="0px"
	 width="100px" height="100px" viewBox="0 0 100 100" enable-background="new 0 0 100 100" xml:space="preserve">
<g id="Your_Icon_3_">
	<path fill="#FFFFFF" d="M98.71,37.626L84.616,83.414c-1.01,2.522-1.576,3.516-3.516,3.516H17.7c-1.939,0-2.522-1.01-3.516-3.516
		L0.089,37.626l0,0c0-1.451,0.884-2.712,2.145-3.249c0.425-0.173,0.883-0.283,1.371-0.283h38.739V16.483
		c0-3.895,3.153-7.049,7.048-7.049c3.895,0,7.048,3.154,7.048,7.049v17.612h38.754c0.488,0,0.945,0.094,1.372,0.283
		C97.828,34.914,98.71,36.16,98.71,37.626L98.71,37.626z M52.923,65.802h9.762l1.623-10.563H52.923V65.802z M62.132,69.318h-9.209
		v10.562h7.585L62.132,69.318z M25.285,41.142H8.225l3.249,10.564h15.436L25.285,41.142z M27.461,55.238h-14.9l3.248,10.563h13.276
		L27.461,55.238z M16.881,69.318l3.248,10.562h11.116L29.62,69.318H16.881z M45.877,41.142H32.333l1.624,10.564h11.921V41.142z
		 M45.877,55.238H34.493l1.624,10.563h9.761V55.238z M36.669,69.318l1.623,10.562h7.585V69.318H36.669z M52.923,41.142v10.564h11.92
		l1.625-10.564H52.923z M67.557,79.881h11.098l3.249-10.562H69.181L67.557,79.881z M69.717,65.802h13.275l3.248-10.563h-14.9
		L69.717,65.802z M73.515,41.142L71.89,51.706h15.455l3.246-10.564H73.515z"/>
</g>
</svg>
