<?xml version="1.0" encoding="utf-8"?>
<!-- Generator: Adobe Illustrator 13.0.2, SVG Export Plug-In . SVG Version: 6.00 Build 14948)  -->
<!DOCTYPE svg PUBLIC "-//W3C//DTD SVG 1.1//EN" "http://www.w3.org/Graphics/SVG/1.1/DTD/svg11.dtd">
<svg version="1.1" id="Calque_1" xmlns="http://www.w3.org/2000/svg" xmlns:xlink="http://www.w3.org/1999/xlink" x="0px" y="0px"
	 width="100px" height="100px" viewBox="0 0 100 100" enable-background="new 0 0 100 100" xml:space="preserve">
<g>
	<g>
		<path fill="#FFFFFF" d="M89.099,30.422c-1.32,0-2.537,0.371-3.668,1.03l-12.032,6.962v-3.008c0-6.387-5.271-11.66-11.659-11.66
			H14.087c-6.388-0.101-11.661,5.17-11.661,11.559v25.939c0,6.386,5.272,11.659,11.661,11.659h47.652
			c6.388,0,11.659-5.273,11.659-11.659v-3.01l12.032,6.963c1.131,0.66,2.348,1.029,3.668,1.029c4.037,0,7.332-3.293,7.332-7.332
			V37.755C96.431,33.699,93.136,30.422,89.099,30.422 M65.49,61.244c0,2.062-1.689,3.769-3.769,3.769H14.07
			c-2.061,0-3.769-1.691-3.769-3.769V35.305c0-2.062,1.69-3.769,3.769-3.769h47.652c2.063,0,3.769,1.69,3.769,3.769V61.244z"/>
	</g>
</g>
</svg>
