<?xml version="1.0" encoding="utf-8"?>
<!-- Generator: Adobe Illustrator 13.0.2, SVG Export Plug-In . SVG Version: 6.00 Build 14948)  -->
<!DOCTYPE svg PUBLIC "-//W3C//DTD SVG 1.1//EN" "http://www.w3.org/Graphics/SVG/1.1/DTD/svg11.dtd">
<svg version="1.1" id="Calque_1" xmlns="http://www.w3.org/2000/svg" xmlns:xlink="http://www.w3.org/1999/xlink" x="0px" y="0px"
	 width="100px" height="100px" viewBox="0 0 100 100" enable-background="new 0 0 100 100" xml:space="preserve">
<g>
	<path fill="#FFFFFF" d="M59.977,31.839c10.373,5.175,15.872,10.266,15.872,19.242c0,7.709-4.123,13.422-10.674,16.279
		c4.23,2.426,6.443,7.192,6.443,12.154c0,12.154-10.458,18.511-21.562,18.511c-16.729,0-22.957-9.834-22.957-15.44
		c0-3.286,2.319-6.035,6.035-6.035c7.194,0,5.283,11.318,16.385,11.318c3.694,0,8.784-1.697,8.784-6.872s-5.927-7.41-14.496-11.726
		c-9.944-4.962-20.724-9.514-20.724-21.562c0-8.354,4.553-12.799,11.318-16.493c-4.016-2.534-6.443-6.98-6.443-11.318
		c0-13.014,10.372-19.349,22.098-19.349c13.636,0,21.154,9.083,21.154,15.333c0,3.393-2.535,6.228-5.929,6.228
		c-7.515,0-4.23-11.426-15.548-11.426c-5.819,0-8.461,3.695-8.461,6.873c0,5.497,5.82,7.709,9.729,9.621L59.977,31.839z
		 M57.229,61.968c3.07-0.729,6.549-3.907,6.549-8.677c0-3.692-1.803-5.926-6.656-8.459l-15.548-8.247
		c-2.857,1.911-6.443,4.123-6.443,8.675c0,2.427,1.589,5.605,4.123,6.979L57.229,61.968z"/>
</g>
</svg>
