<svg xmlns="http://www.w3.org/2000/svg" viewBox="0 0 62.09 34.17"><defs><style>.cls-1{fill:#fff;}</style></defs><title>fr_sign</title><g id="Lag_2" data-name="Lag 2"><g id="Lag_1-2" data-name="Lag 1"><path class="cls-1" d="M23.94,10.73H6.31A1.63,1.63,0,0,0,5,11.32L.37,17a1.64,1.64,0,0,0,0,2.09l4.67,5.56a1.63,1.63,0,0,0,1.26.59H23.94a1.64,1.64,0,0,0,1.64-1.64V12.37A1.63,1.63,0,0,0,23.94,10.73Zm-.43,12.45h-17L2.2,18,6.51,12.8h17Z"/><path class="cls-1" d="M61.89,8.33l-6.58-8A.9.9,0,0,0,54.64,0H29.74a.85.85,0,0,0-.86.86V16.73a.85.85,0,0,0,.86.85h24.9a.86.86,0,0,0,.66-.3l6.59-7.85A.86.86,0,0,0,61.89,8.33Z"/><path class="cls-1" d="M41.54,25.9a.44.44,0,0,0-.32-.15H29.29a.41.41,0,0,0-.41.41v7.6a.41.41,0,0,0,.41.41H41.22a.43.43,0,0,0,.32-.14l3.15-3.76a.41.41,0,0,0,0-.53Z"/></g></g></svg>