<?xml version="1.0" encoding="utf-8"?>
<!-- Generator: Adobe Illustrator 13.0.2, SVG Export Plug-In . SVG Version: 6.00 Build 14948)  -->
<!DOCTYPE svg PUBLIC "-//W3C//DTD SVG 1.1//EN" "http://www.w3.org/Graphics/SVG/1.1/DTD/svg11.dtd">
<svg version="1.1" id="Layer_1" xmlns="http://www.w3.org/2000/svg" xmlns:xlink="http://www.w3.org/1999/xlink" x="0px" y="0px"
	 width="100px" height="100px" viewBox="0 0 100 100" enable-background="new 0 0 100 100" xml:space="preserve">
<g>
	<path fill="#FFFFFF" d="M90.839,30.891c0-0.109,0-0.219-0.021-0.327c-0.065-0.872-0.24-1.722-0.502-2.528
		c-0.021-0.087-0.064-0.196-0.107-0.283c-0.154-0.415-0.328-0.807-0.523-1.198l0,0c-0.197-0.393-0.459-0.763-0.699-1.133
		c-0.064-0.065-0.107-0.152-0.173-0.219c-0.262-0.348-0.566-0.697-0.873-1.024L66.715,2.909c-1.874-1.874-4.401-2.919-7.039-2.919
		H21.649c-5.491,0-9.959,4.467-9.959,9.958v78.998c0,5.492,4.468,9.959,9.959,9.959h59.252c5.492,0,9.959-4.467,9.959-9.959V31.217
		C90.86,31.109,90.839,31,90.839,30.891z M59.742,10.057l21.159,21.16H59.742V10.057z M80.901,88.945H21.649V9.948h28.157
		c0,0.044,0,0.088,0,0.131V31.24c0,5.491,4.467,9.959,9.958,9.959h21.159v47.747H80.901z"/>
	<g>
		<path fill="#FFFFFF" d="M62.4,55.973c-3.074-3.07-8.062-3.07-11.137,0c-3.071-3.07-8.041-3.07-11.135,0
			c-3.073,3.074-3.073,8.062,0,11.137l11.135,11.135l2.245,2.246V76l8.892-8.891C65.472,64.035,65.472,59.047,62.4,55.973"/>
	</g>
</g>
</svg>
