<?xml version="1.0" encoding="utf-8"?>
<!-- Generator: Adobe Illustrator 13.0.2, SVG Export Plug-In . SVG Version: 6.00 Build 14948)  -->
<!DOCTYPE svg PUBLIC "-//W3C//DTD SVG 1.1//EN" "http://www.w3.org/Graphics/SVG/1.1/DTD/svg11.dtd">
<svg version="1.1" id="Layer_1" xmlns="http://www.w3.org/2000/svg" xmlns:xlink="http://www.w3.org/1999/xlink" x="0px" y="0px"
	 width="100px" height="100px" viewBox="0 0 100 100" enable-background="new 0 0 100 100" xml:space="preserve">
<g>
	<g>
		<g>
			<path fill="#FFFFFF" d="M23.11,85.438L23.11,85.438L23.11,85.438z M23.11,80.668c1.722,0,3.269-0.697,4.402-1.831
				c1.133-1.135,1.83-2.681,1.83-4.402s-0.697-3.268-1.83-4.402c-1.133-1.132-2.68-1.829-4.402-1.829V63.43
				c6.08,0,11.004,4.924,11.004,11.005S29.19,85.438,23.11,85.438V80.668z"/>
			<path fill="#FFFFFF" d="M23.11,54.8c1.722,0,3.269-0.697,4.402-1.829c1.133-1.135,1.83-2.682,1.83-4.402
				c0-1.722-0.697-3.27-1.83-4.402c-1.133-1.134-2.68-1.831-4.402-1.831v-4.772c6.08,0,11.004,4.924,11.004,11.005
				c0,6.079-4.924,11.004-11.004,11.004V54.8z"/>
			<path fill="#FFFFFF" d="M23.11,28.912c1.722,0,3.269-0.698,4.402-1.831s1.83-2.681,1.83-4.402s-0.697-3.269-1.83-4.402
				c-1.133-1.132-2.68-1.831-4.402-1.831v-4.772c6.08,0,11.004,4.924,11.004,11.004S29.19,33.684,23.11,33.684V28.912z"/>
		</g>
	</g>
	<path fill="#FFFFFF" d="M88.922,30.067c0-0.109,0-0.218-0.021-0.327c-0.066-0.872-0.24-1.722-0.502-2.528
		c-0.021-0.087-0.066-0.196-0.109-0.283c-0.152-0.414-0.326-0.806-0.522-1.199l0,0c-0.195-0.393-0.457-0.763-0.697-1.133
		c-0.064-0.065-0.109-0.153-0.174-0.218c-0.262-0.349-0.566-0.698-0.871-1.024L64.797,2.085c-1.874-1.874-4.4-2.92-7.037-2.92
		H19.732c-5.492,0-9.959,4.467-9.959,9.96v78.994c0,5.493,4.467,9.96,9.959,9.96h59.253c5.491,0,9.958-4.467,9.958-9.96V30.394
		C88.922,30.284,88.922,30.175,88.922,30.067z M57.824,9.256l21.161,21.159H57.824V9.256z M78.985,88.119H19.732V9.125h28.155
		c0,0.043,0,0.087,0,0.131v21.159c0,5.492,4.468,9.959,9.958,9.959h21.161v47.745H78.985z"/>
</g>
</svg>
