<?xml version="1.0" encoding="utf-8"?>
<!-- Generator: Adobe Illustrator 13.0.2, SVG Export Plug-In . SVG Version: 6.00 Build 14948)  -->
<!DOCTYPE svg PUBLIC "-//W3C//DTD SVG 1.1//EN" "http://www.w3.org/Graphics/SVG/1.1/DTD/svg11.dtd">
<svg version="1.1" id="Layer_1" xmlns="http://www.w3.org/2000/svg" xmlns:xlink="http://www.w3.org/1999/xlink" x="0px" y="0px"
	 width="100px" height="100px" viewBox="0 0 100 100" enable-background="new 0 0 100 100" xml:space="preserve">
<g id="Layer_1_1_">
</g>
<g id="Layer_2">
	<path fill="#FFFFFF" d="M44.716,74.945c-18.251,0-33.1-14.85-33.1-33.102c0-18.249,14.849-33.095,33.1-33.095
		c18.246,0,33.091,14.847,33.091,33.095C77.807,60.098,62.962,74.945,44.716,74.945z M44.716,22.75
		c-10.532,0-19.1,8.566-19.1,19.095c0,10.532,8.568,19.102,19.1,19.102c10.526,0,19.091-8.568,19.091-19.102
		C63.807,31.315,55.242,22.75,44.716,22.75z"/>
	<path fill="#FFFFFF" d="M55.386,67.918c7.863,7.691,15.728,15.383,23.591,23.074c6.455,6.312,16.361-3.579,9.899-9.9
		c-7.862-7.691-15.728-15.383-23.59-23.074C58.83,51.704,48.924,61.598,55.386,67.918L55.386,67.918z"/>
</g>
</svg>
