<svg xmlns="http://www.w3.org/2000/svg" viewBox="0 0 27.9 40.85"><defs><style>.cls-1{fill:#fff;}</style></defs><title>fr_book</title><g id="Lag_2" data-name="Lag 2"><g id="Lag_1-2" data-name="Lag 1"><path class="cls-1" d="M13.46,5.13,12.37,5l-.22,0-1.09-.18L9.7,4.52c-.3,0-.33,0-.08.19l2.31,1.41.92.6,5.73,4a1.17,1.17,0,0,1,.45.86V37.77a.55.55,0,0,0,.55.55h.51a.55.55,0,0,0,.55-.55l0-27.18a1.16,1.16,0,0,0-.46-.85L16.46,7.29c-.25-.16-.21-.26.09-.21L22.19,8a.67.67,0,0,1,.54.64V34.25a.55.55,0,0,0,.55.55h.33a.54.54,0,0,0,.55-.55V7.16a.37.37,0,0,0-.3-.35L23,6.68Z" transform="translate(0 0)"/><path class="cls-1" d="M5.36,0a2.17,2.17,0,0,0-1,.16L.5,2a.94.94,0,0,0-.5.78v26.3a1.14,1.14,0,0,0,.46.85L16.58,40.77c.25.17.46.06.46-.24V13.22a1.18,1.18,0,0,0-.46-.86L3.18,3.28a.29.29,0,0,1,0-.55l1.39-.67a2.08,2.08,0,0,1,1-.17L25.54,4.71a.67.67,0,0,1,.54.63V32.07a.55.55,0,0,0,.55.54h.72a.55.55,0,0,0,.55-.54V3.76a.65.65,0,0,0-.54-.63Z" transform="translate(0 0)"/></g></g></svg>