<?xml version="1.0" encoding="utf-8"?>
<!-- Generator: Adobe Illustrator 13.0.2, SVG Export Plug-In . SVG Version: 6.00 Build 14948)  -->
<!DOCTYPE svg PUBLIC "-//W3C//DTD SVG 1.1//EN" "http://www.w3.org/Graphics/SVG/1.1/DTD/svg11.dtd">
<svg version="1.1" id="Calque_1" xmlns="http://www.w3.org/2000/svg" xmlns:xlink="http://www.w3.org/1999/xlink" x="0px" y="0px"
	 width="100px" height="100px" viewBox="0 0 100 100" enable-background="new 0 0 100 100" xml:space="preserve">
<g>
	<g>
		<path fill="#FFFFFF" d="M67.089,29.862c9.674,0,17.506,7.776,17.506,17.366c0,9.606-7.832,17.38-17.506,17.38
			c-9.675,0-17.52-7.774-17.52-17.38C49.569,37.639,57.414,29.862,67.089,29.862z"/>
		<path fill="#FFFFFF" d="M98.22,94.217v-4.509c0-10.609-8.752-19.308-19.459-19.308H55.404c-10.693,0-19.445,8.698-19.445,19.308
			v4.509H98.22z"/>
	</g>
	<g>
		<path fill-rule="evenodd" clip-rule="evenodd" fill="#FFFFFF" d="M70.858,10.527H9.742c-1.188,0-2.136,0.949-2.136,2.108v31.188
			c0,1.159,0.949,2.108,2.136,2.108h8.794h2.625l1.983,1.689l10.901,9.228l-0.125-3.644l-0.224-7.273h7.329h29.833
			c1.173,0,2.135-0.949,2.135-2.108V12.635C72.993,11.476,72.031,10.527,70.858,10.527z M70.858,3.478
			c5.095,0,9.24,4.105,9.24,9.157v31.188c0,5.052-4.146,9.157-9.24,9.157H41.025l0.322,10.303c0.098,3.238-1.102,5.011-3.002,5.011
			c-1.061,0-2.345-0.559-3.741-1.716l1.006,0.852c-0.014,0-2.737-2.304-17.074-14.449H9.742c-5.109,0-9.242-4.105-9.242-9.157
			V12.635c0-5.052,4.132-9.157,9.242-9.157H70.858z"/>
	</g>
</g>
</svg>
