<?xml version="1.0" encoding="utf-8"?>
<!-- Generator: Adobe Illustrator 13.0.2, SVG Export Plug-In . SVG Version: 6.00 Build 14948)  -->
<!DOCTYPE svg PUBLIC "-//W3C//DTD SVG 1.1//EN" "http://www.w3.org/Graphics/SVG/1.1/DTD/svg11.dtd">
<svg version="1.1" id="Calque_1" xmlns="http://www.w3.org/2000/svg" xmlns:xlink="http://www.w3.org/1999/xlink" x="0px" y="0px"
	 width="100px" height="100px" viewBox="0 0 100 100" enable-background="new 0 0 100 100" xml:space="preserve">
<g>
	<path fill="#FFFFFF" d="M83.833,1.373h-59.31c-4.099,0-7.645,1.489-10.453,4.099c-2.608,2.609-4.098,6.156-4.098,10.069
		c0,0.185,0,0.369,0,0.369v66.585c0,0.186,0,0.186,0,0.369c0,0.186,0,0.186,0,0.369c0,7.092,5.035,14.736,14.551,14.736h59.494
		c2.794,0,4.852-2.24,4.852-4.852V6.223C88.883,3.614,86.642,1.373,83.833,1.373z M78.982,88.098H24.523
		c-4.482,0-4.666-3.914-4.666-4.852c0-1.119,0.369-4.664,4.666-4.664h54.459V88.098z M78.982,68.895H24.523
		c-1.674,0-3.361,0.184-4.666,0.752V16.108v-0.184c0-1.305,0.369-2.61,1.305-3.545c0.751-0.752,1.858-1.122,3.361-1.122h54.459
		V68.895z"/>
	<path fill="#FFFFFF" d="M32.55,30.092h32.648c2.794,0,4.85-2.241,4.85-4.851s-2.239-4.851-4.85-4.851H32.55
		c-2.794,0-4.85,2.241-4.85,4.851S29.756,30.092,32.55,30.092z"/>
	<path fill="#FFFFFF" d="M32.55,47.437h32.648c2.794,0,4.85-2.24,4.85-4.85c0-2.61-2.239-4.85-4.85-4.85H32.55
		c-2.794,0-4.85,2.24-4.85,4.85C27.7,45.21,29.756,47.437,32.55,47.437z"/>
</g>
</svg>
