<?xml version="1.0" encoding="utf-8"?>
<!-- Generator: Adobe Illustrator 13.0.2, SVG Export Plug-In . SVG Version: 6.00 Build 14948)  -->
<!DOCTYPE svg PUBLIC "-//W3C//DTD SVG 1.1//EN" "http://www.w3.org/Graphics/SVG/1.1/DTD/svg11.dtd">
<svg version="1.1" id="Layer_1" xmlns="http://www.w3.org/2000/svg" xmlns:xlink="http://www.w3.org/1999/xlink" x="0px" y="0px"
	 width="100px" height="73.529px" viewBox="0 0 100 73.529" enable-background="new 0 0 100 73.529" xml:space="preserve">
<g id="Your_Icon">
	<path fill="#FFFFFF" d="M99.975,5.358c-0.029-0.34-0.093-0.669-0.179-0.991c-0.012-0.043-0.021-0.087-0.034-0.131
		c-0.096-0.333-0.224-0.652-0.375-0.958c-0.019-0.036-0.031-0.072-0.053-0.108c-0.169-0.326-0.369-0.633-0.595-0.919
		c-0.011-0.014-0.017-0.029-0.025-0.043c-0.009-0.007-0.015-0.012-0.021-0.019c-0.236-0.294-0.502-0.563-0.791-0.808
		c-0.014-0.01-0.024-0.021-0.036-0.033c-0.294-0.241-0.609-0.457-0.945-0.64c-0.001,0-0.003-0.001-0.005-0.002
		c-0.646-0.351-1.368-0.581-2.133-0.667c-0.01-0.001-0.016-0.003-0.022-0.003C94.55,0.015,94.335,0,94.118,0H5.882
		C5.666,0,5.452,0.014,5.24,0.037c-0.005,0-0.011,0.002-0.017,0.002C4.055,0.17,2.991,0.639,2.132,1.35
		c-0.011,0.008-0.02,0.019-0.029,0.027c-0.29,0.245-0.558,0.516-0.796,0.812C1.302,2.196,1.295,2.201,1.289,2.208
		c-0.011,0.014-0.017,0.03-0.028,0.043C1.036,2.538,0.836,2.845,0.667,3.17c-0.02,0.036-0.034,0.072-0.052,0.107
		c-0.151,0.307-0.279,0.625-0.376,0.96C0.226,4.28,0.217,4.323,0.205,4.367C0.12,4.688,0.057,5.018,0.027,5.358
		C0.022,5.402,0.023,5.445,0.021,5.489C0.012,5.619,0,5.749,0,5.881v61.767c0,3.25,2.634,5.883,5.882,5.883h88.236
		c3.248,0,5.882-2.633,5.882-5.883V5.881c0-0.131-0.011-0.261-0.021-0.392C99.977,5.445,99.979,5.402,99.975,5.358z M77.35,11.764
		L50,33.643L22.651,11.764H77.35z M11.765,61.767V18.122l34.56,27.646C47.4,46.628,48.7,47.058,50,47.058
		c1.301,0,2.6-0.43,3.675-1.289l34.558-27.646v43.645H11.765z"/>
</g>
</svg>
