<?xml version="1.0" encoding="utf-8"?>
<!-- Generator: Adobe Illustrator 13.0.2, SVG Export Plug-In . SVG Version: 6.00 Build 14948)  -->
<!DOCTYPE svg PUBLIC "-//W3C//DTD SVG 1.1//EN" "http://www.w3.org/Graphics/SVG/1.1/DTD/svg11.dtd">
<svg version="1.1" id="Layer_1" xmlns="http://www.w3.org/2000/svg" xmlns:xlink="http://www.w3.org/1999/xlink" x="0px" y="0px"
	 width="100px" height="100px" viewBox="0 0 100 100" enable-background="new 0 0 100 100" xml:space="preserve">
<path fill="#FFFFFF" d="M50,0.98C22.971,0.98,0.98,22.971,0.98,50c0,27.028,21.99,49.02,49.02,49.02
	c27.028,0,49.02-21.991,49.02-49.02C99.02,22.971,77.028,0.98,50,0.98z M33.372,10.264c-2.241,2.837-4.226,6.239-5.882,10.106
	c-2.106-0.722-4.186-1.519-6.21-2.44C24.831,14.744,28.909,12.138,33.372,10.264z M16.92,22.441c2.757,1.351,5.597,2.529,8.501,3.53
	c-1.976,6.261-3.192,13.396-3.443,21.058H7.035C7.673,37.714,11.278,29.203,16.92,22.441z M7.035,52.971h14.944
	c0.251,7.662,1.467,14.797,3.443,21.058c-2.903,1.001-5.744,2.18-8.501,3.531C11.278,70.798,7.673,62.286,7.035,52.971z
	 M21.278,82.07c2.024-0.922,4.105-1.719,6.21-2.439c1.658,3.867,3.641,7.27,5.882,10.106C28.909,87.863,24.831,85.255,21.278,82.07z
	 M47.029,92.66c-5.412-1.485-10.267-6.947-13.736-14.771c4.489-1.112,9.097-1.752,13.736-1.951V92.66z M47.029,69.969
	c-5.36,0.214-10.68,1-15.852,2.334c-1.833-5.745-2.99-12.34-3.249-19.332h19.101V69.969z M47.029,47.029H27.928
	c0.259-6.993,1.416-13.587,3.249-19.331c5.173,1.333,10.492,2.119,15.852,2.332V47.029z M47.029,24.064
	c-4.639-0.2-9.248-0.84-13.737-1.952c3.471-7.824,8.326-13.287,13.737-14.772V24.064z M92.965,47.029H78.021
	c-0.251-7.662-1.467-14.797-3.443-21.058c2.903-1.001,5.744-2.18,8.502-3.53C88.723,29.203,92.326,37.715,92.965,47.029z
	 M78.723,17.93c-2.024,0.922-4.105,1.718-6.211,2.44c-1.656-3.867-3.641-7.269-5.883-10.106
	C71.092,12.138,75.17,14.744,78.723,17.93z M52.971,7.339c5.41,1.486,10.266,6.949,13.736,14.772
	c-4.488,1.112-9.098,1.752-13.736,1.952V7.339z M52.971,30.03c5.359-0.213,10.68-1,15.852-2.332
	c1.834,5.744,2.99,12.338,3.25,19.331H52.971V30.03z M52.971,52.971h19.102c-0.261,6.992-1.416,13.586-3.25,19.332
	c-5.172-1.334-10.492-2.12-15.852-2.334V52.971z M52.971,92.66V75.937c4.639,0.198,9.247,0.839,13.736,1.952
	C63.236,85.713,58.381,91.175,52.971,92.66z M66.629,89.736c2.242-2.838,4.227-6.238,5.883-10.105
	c2.105,0.723,4.187,1.518,6.211,2.44C75.17,85.256,71.092,87.863,66.629,89.736z M83.08,77.558c-2.759-1.351-5.599-2.528-8.502-3.53
	c1.977-6.261,3.192-13.395,3.443-21.058h14.943C92.326,62.286,88.723,70.797,83.08,77.558z"/>
</svg>
