<?xml version="1.0" encoding="utf-8"?>
<!-- Generator: Adobe Illustrator 16.0.0, SVG Export Plug-In . SVG Version: 6.00 Build 0)  -->
<!DOCTYPE svg PUBLIC "-//W3C//DTD SVG 1.1//EN" "http://www.w3.org/Graphics/SVG/1.1/DTD/svg11.dtd">
<svg version="1.1" id="Layer_1" xmlns="http://www.w3.org/2000/svg" xmlns:xlink="http://www.w3.org/1999/xlink" x="0px" y="0px"
	 width="99.997px" height="69.236px" viewBox="362.663 269.498 99.997 69.236"
	 enable-background="new 362.663 269.498 99.997 69.236" xml:space="preserve">
<g>
	<g>
		<g>
			<defs>
				<rect id="SVGID_1_" x="362.663" y="269.498" width="99.997" height="69.236"/>
			</defs>
			<clipPath id="SVGID_2_">
				<use xlink:href="#SVGID_1_"  overflow="visible"/>
			</clipPath>
			<path clip-path="url(#SVGID_2_)" fill="#FFFFFF" d="M459.491,323.685c5.742-10.85,3.528-24.026-5.436-32.146
				c-4.81-4.353-11.052-6.748-17.592-6.748c-3.328,0-6.608,0.616-9.74,1.833c-0.028,0.011-0.065,0.022-0.096,0.037
				c-1.183-1.973-2.561-3.822-4.105-5.525c-6.694-7.395-16.196-11.638-26.069-11.638c-8.456,0-16.534,3.103-22.75,8.728
				c-11.556,10.468-14.4,28.075-6.821,41.99l-3.072,10.284c-0.319,1.067-0.049,2.243,0.697,3.069
				c0.744,0.823,1.905,1.207,2.991,0.999l10.488-2.032c5.818,3.998,12.861,6.199,19.868,6.199c7.262,0,14.173-2.247,19.999-6.503
				l0.43-0.316c4.747,4.108,10.802,6.363,17.138,6.363c5.295,0,10.627-1.633,15.062-4.598l7.532,1.459
				c0.199,0.038,0.406,0.061,0.61,0.061c0.904,0,1.771-0.387,2.376-1.058c0.75-0.824,1.019-1.997,0.699-3.07L459.491,323.685z
				 M397.854,332.315c-6.145,0-12.253-2.045-17.195-5.757c-0.716-0.536-1.671-0.752-2.533-0.586l-6.651,1.284l1.947-6.521
				c0.257-0.86,0.14-1.8-0.322-2.566c-6.914-11.548-4.849-26.347,4.912-35.187c5.034-4.558,11.582-7.07,18.445-7.07
				c8.063,0,15.835,3.475,21.312,9.528c1.198,1.32,2.269,2.749,3.203,4.267c-1.699,1.184-3.258,2.542-4.637,4.065
				c-8.347,9.216-9.444,22.752-2.669,32.909c0.102,0.146,0.203,0.289,0.307,0.435l-0.105,0.074
				C409.192,330.545,403.652,332.315,397.854,332.315 M452.954,324.214l1.082,3.624l-3.682-0.717
				c-0.871-0.171-1.819,0.046-2.532,0.587c-3.569,2.679-7.975,4.151-12.4,4.151c-4.943,0-9.653-1.809-13.279-5.087
				c-0.162-0.147-0.32-0.303-0.521-0.495c-1.114-1.092-2.098-2.304-2.92-3.621c-4.781-7.636-3.801-17.742,2.385-24.576
				c1.165-1.288,2.501-2.434,3.973-3.411c1.306-0.866,2.712-1.584,4.164-2.135c2.344-0.883,4.778-1.331,7.239-1.331
				c4.941,0,9.657,1.81,13.282,5.09c7.034,6.365,8.519,17.031,3.529,25.356C452.816,322.423,452.693,323.354,452.954,324.214"/>
		</g>
	</g>
	<g>
		<g>
			<defs>
				<rect id="SVGID_3_" x="362.663" y="269.498" width="99.997" height="69.236"/>
			</defs>
			<clipPath id="SVGID_4_">
				<use xlink:href="#SVGID_3_"  overflow="visible"/>
			</clipPath>
			<path clip-path="url(#SVGID_4_)" fill="#FFFFFF" d="M400.312,319.506c-2.216,0.972-3.781,0.703-3.781,1.618v3.189
				c0,0.381-0.163,0.541-0.539,0.541H391.4c-0.377,0-0.541-0.16-0.541-0.541v-3.189c0-0.863-1.889-0.485-3.89-1.618
				c-3.026-1.676-4.646-4.539-4.646-8.321v-15.988c0-5.728,3.997-9.563,10.049-9.563h2.645c6.052,0,10.051,3.838,10.051,9.563
				v15.988C405.063,315.023,403.067,318.318,400.312,319.506 M398.853,295.196c0-2.218-1.672-3.892-3.836-3.892h-2.643
				c-2.158,0-3.891,1.729-3.891,3.892v15.988c0,1.784,1.297,3.293,2.161,3.293c0.163,0,0.325-0.161,0.433-0.433l0.7-2.158
				c0.11-0.27,0.271-0.379,0.543-0.379h2.752c0.271,0,0.488,0.108,0.541,0.379l0.701,2.271c0.107,0.322,0.271,0.431,0.433,0.431
				c0.702,0,2.106-1.566,2.106-3.403V295.196L398.853,295.196L398.853,295.196z"/>
		</g>
	</g>
	<g>
		<g>
			<defs>
				<rect id="SVGID_5_" x="362.663" y="269.498" width="99.997" height="69.236"/>
			</defs>
			<clipPath id="SVGID_6_">
				<use xlink:href="#SVGID_5_"  overflow="visible"/>
			</clipPath>
			<path clip-path="url(#SVGID_6_)" fill="#FFFFFF" d="M445.551,322.714c0,0.228-0.155,0.34-0.419,0.34h-3.823
				c-0.229,0-0.342-0.076-0.381-0.266l-1.137-3.978c-0.039-0.19-0.155-0.229-0.381-0.229h-5.416c-0.227,0-0.344,0.038-0.381,0.229
				l-1.138,3.978c-0.034,0.189-0.186,0.266-0.378,0.266h-3.788c-0.263,0-0.414-0.112-0.414-0.34c0-0.038,0.034-0.076,0.034-0.152
				l7.046-23.109c0.077-0.19,0.151-0.265,0.381-0.265h2.727c0.188,0,0.305,0.076,0.379,0.265l7.049,23.109
				C445.511,322.641,445.551,322.676,445.551,322.714 M437.213,309.113c-0.036-0.227-0.19-0.912-0.416-2.083h-0.111
				c-0.266,1.171-0.416,1.858-0.456,2.083l-1.286,5.002c0,0.035-0.039,0.111-0.039,0.152c0,0.228,0.151,0.341,0.417,0.341h2.767
				c0.262,0,0.412-0.113,0.412-0.341c0-0.037-0.034-0.112-0.034-0.152L437.213,309.113z"/>
		</g>
	</g>
</g>
</svg>
