<?xml version="1.0" encoding="utf-8"?>
<!-- Generator: Adobe Illustrator 13.0.2, SVG Export Plug-In . SVG Version: 6.00 Build 14948)  -->
<!DOCTYPE svg PUBLIC "-//W3C//DTD SVG 1.1//EN" "http://www.w3.org/Graphics/SVG/1.1/DTD/svg11.dtd">
<svg version="1.1" id="Calque_1" xmlns="http://www.w3.org/2000/svg" xmlns:xlink="http://www.w3.org/1999/xlink" x="0px" y="0px"
	 width="100px" height="100px" viewBox="0 0 100 100" enable-background="new 0 0 100 100" xml:space="preserve">
<g id="Your_Icon_1_">
	<path fill="#FFFFFF" d="M29.56,96.539h44.432c9.723,0,17.619-7.898,17.619-17.619V34.488c0-7.513-4.719-13.913-11.34-16.444v5.022
		c0,0.425-0.04,0.83-0.082,1.256c-0.121,1.073-0.404,2.105-0.811,3.057c-1.66,3.848-5.508,6.562-9.964,6.562
		c-5.123,0-9.438-3.584-10.55-8.363c-0.103-0.405-0.163-0.811-0.223-1.235c-0.042-0.405-0.082-0.831-0.082-1.255V16.89H44.992v6.176
		c0,0.425-0.021,0.83-0.082,1.256c-0.04,0.424-0.122,0.83-0.222,1.234c-1.135,4.8-5.428,8.364-10.551,8.364
		c-4.456,0-8.304-2.694-9.964-6.562c-0.405-0.952-0.688-1.985-0.809-3.058c-0.041-0.405-0.082-0.83-0.082-1.255v-5.022
		c-6.622,2.532-11.341,8.951-11.341,16.444v44.432C11.941,88.641,19.839,96.539,29.56,96.539z M20.608,50.243h62.314V78.92
		c0,4.922-4.01,8.931-8.932,8.931H29.56c-4.921,0-8.93-4.009-8.93-8.931V50.243H20.608z"/>
	<path fill="#FFFFFF" d="M30.573,25.557c0.789,1.114,2.085,1.863,3.564,1.863s2.775-0.749,3.564-1.863
		c0.263-0.364,0.445-0.79,0.588-1.234c0.122-0.405,0.202-0.811,0.202-1.256V16.87V8.971c0-2.389-1.944-4.334-4.334-4.334
		c-2.389,0-4.334,1.945-4.334,4.334v7.899v6.196c0,0.445,0.082,0.851,0.203,1.256C30.126,24.767,30.33,25.172,30.573,25.557z"/>
	<path fill="#FFFFFF" d="M65.852,25.557c0.789,1.114,2.084,1.863,3.562,1.863s2.774-0.749,3.565-1.863
		c0.263-0.364,0.444-0.79,0.587-1.234c0.12-0.405,0.203-0.811,0.203-1.256V16.87V8.971c0-2.389-1.944-4.334-4.335-4.334
		c-2.39,0-4.333,1.945-4.333,4.334v7.899v6.196c0,0.445,0.08,0.851,0.202,1.256C65.405,24.767,65.588,25.172,65.852,25.557z"/>
</g>
</svg>
