<?xml version="1.0" encoding="utf-8"?>
<!-- Generator: Adobe Illustrator 13.0.2, SVG Export Plug-In . SVG Version: 6.00 Build 14948)  -->
<!DOCTYPE svg PUBLIC "-//W3C//DTD SVG 1.1//EN" "http://www.w3.org/Graphics/SVG/1.1/DTD/svg11.dtd">
<svg version="1.1" id="Calque_1" xmlns="http://www.w3.org/2000/svg" xmlns:xlink="http://www.w3.org/1999/xlink" x="0px" y="0px"
	 width="100px" height="100px" viewBox="0 0 100 100" enable-background="new 0 0 100 100" xml:space="preserve">
<g>
	<path fill="#FFFFFF" d="M95.134,62.39H4.16c-1.707,0-3.05-1.326-3.05-3.05c0-1.708,1.325-3.051,3.05-3.051h90.774
		c1.705,0,3.048,1.325,3.048,3.051C97.982,61.063,96.839,62.39,95.134,62.39z"/>
	<path fill="#FFFFFF" d="M87.873,70.51c-1.705,0-3.05-1.326-3.05-3.05v-8.12c0-1.708,1.325-3.051,3.05-3.051
		c1.723,0,3.05,1.325,3.05,3.051v8.12C90.902,68.986,89.578,70.51,87.873,70.51z"/>
	<path fill="#FFFFFF" d="M11.42,70.51c-1.706,0-3.049-1.326-3.049-3.05v-8.12c0-1.708,1.325-3.051,3.049-3.051
		c1.706,0,3.049,1.325,3.049,3.051v8.12C14.469,68.986,13.126,70.51,11.42,70.51z"/>
	<path fill="#FFFFFF" d="M43.366,62.188H31.005c-1.706,0-3.049-1.323-3.049-3.051V21.495c0-1.707,1.325-3.05,3.049-3.05h12.361
		c1.706,0,3.049,1.326,3.049,3.05v37.643C46.416,60.865,45.072,62.188,43.366,62.188z M34.055,56.108h6.279V24.726h-6.279V56.108z"
		/>
	<path fill="#FFFFFF" d="M81.773,62.188H69.412c-1.707,0-3.05-1.323-3.05-3.051V21.495c0-1.707,1.327-3.05,3.05-3.05h12.361
		c1.705,0,3.05,1.326,3.05,3.05v37.643C84.823,60.865,83.498,62.188,81.773,62.188z M72.281,56.108h6.28V24.726h-6.28V56.108z"/>
	<path fill="#FFFFFF" d="M55.926,62.188c-1.705,0-3.048-1.323-3.048-3.051V34.055h-9.312c-1.706,0-3.049-1.326-3.049-3.049
		c0-1.725,1.325-3.049,3.049-3.049h12.36c1.707,0,3.051,1.324,3.051,3.049v28.153C58.958,60.865,57.633,62.188,55.926,62.188z"/>
	<path fill="#FFFFFF" d="M18.263,62.188c-1.705,0-3.049-1.323-3.049-3.051V31.005c0-1.706,1.325-3.049,3.049-3.049h12.362
		c1.707,0,3.048,1.324,3.048,3.049c0,1.707-1.324,3.049-3.048,3.049h-9.312v25.104C21.312,60.865,19.969,62.188,18.263,62.188z"/>
</g>
</svg>
