<?xml version="1.0" encoding="utf-8"?>
<!-- Generator: Adobe Illustrator 13.0.2, SVG Export Plug-In . SVG Version: 6.00 Build 14948)  -->
<!DOCTYPE svg PUBLIC "-//W3C//DTD SVG 1.1//EN" "http://www.w3.org/Graphics/SVG/1.1/DTD/svg11.dtd">
<svg version="1.1" id="Calque_1" xmlns="http://www.w3.org/2000/svg" xmlns:xlink="http://www.w3.org/1999/xlink" x="0px" y="0px"
	 width="100px" height="100px" viewBox="0 0 100 100" enable-background="new 0 0 100 100" xml:space="preserve">
<g id="Your_Icon_2_">
	<path fill="#FFFFFF" d="M96.938,48.643c-1.974-6.796-11.918-26.982-13.766-30.605c-3.174-6.245-11.067-3.348-7.97,3.348
		c0.75,1.624,4.921,10.842,6.045,12.992c-1.923-0.5-3.896-0.775-5.919-0.775c-8.221,0-13.418,3.573-16.264,6.471H39.427
		c-2.847-2.898-8.044-6.471-16.263-6.471c-2.023,0-4.023,0.25-5.921,0.775c1.099-2.149,5.296-11.368,6.046-12.992
		c3.097-6.696-4.797-9.593-7.97-3.348c-1.874,3.623-11.842,23.809-13.79,30.605c-0.95,2.573-1.449,5.27-1.449,8.019
		c0,12.716,10.343,23.085,23.084,23.085c8.818,0,16.738-4.897,20.661-12.793c0.699-1.398,1.249-2.872,1.648-4.371
		c0.5-1.925,0.774-3.898,0.774-5.897c0-1.447-0.399-4.321-0.399-4.321h6.796c0,0-0.401,2.874-0.401,4.321
		c0,1.999,0.25,3.973,0.775,5.897c0.399,1.499,0.948,2.973,1.648,4.371c3.921,7.896,11.841,12.793,20.662,12.793
		c12.716,0,23.082-10.344,23.082-23.085C98.361,53.913,97.888,51.216,96.938,48.643z M36.055,61.434
		c-1.999,5.397-7.195,9.019-12.916,9.019c-7.595,0-13.79-6.171-13.79-13.79c0-1.326,0.199-2.623,0.574-3.897
		c0.15-0.35,0.3-0.799,0.325-0.95c2.024-5.346,7.195-8.943,12.892-8.943c5.721,0,10.917,3.623,12.916,9.019
		c0.575,1.549,0.875,3.172,0.875,4.772C36.93,58.287,36.655,59.885,36.055,61.434z M75.304,70.452
		c-5.723,0-10.919-3.621-12.915-9.019c-0.576-1.549-0.875-3.172-0.875-4.771c0-1.601,0.299-3.224,0.875-4.772
		c1.996-5.396,7.192-9.019,12.915-9.019c5.696,0,10.866,3.598,12.891,8.943c0.05,0.151,0.199,0.601,0.35,0.95
		c0.373,1.274,0.55,2.571,0.55,3.897C89.069,64.256,82.897,70.452,75.304,70.452z"/>
</g>
</svg>
