<?xml version="1.0" encoding="utf-8"?>
<!-- Generator: Adobe Illustrator 13.0.2, SVG Export Plug-In . SVG Version: 6.00 Build 14948)  -->
<!DOCTYPE svg PUBLIC "-//W3C//DTD SVG 1.1//EN" "http://www.w3.org/Graphics/SVG/1.1/DTD/svg11.dtd">
<svg version="1.1" id="Calque_1" xmlns="http://www.w3.org/2000/svg" xmlns:xlink="http://www.w3.org/1999/xlink" x="0px" y="0px"
	 width="100px" height="100px" viewBox="0 0 100 100" enable-background="new 0 0 100 100" xml:space="preserve">
<path fill="#FFFFFF" d="M33.686,28.673h54.863c4.298,0,7.764-3.467,7.764-7.767c0-4.298-3.466-7.766-7.764-7.766H33.686
	c-4.299,0-7.791,3.468-7.791,7.766C25.918,25.182,29.387,28.673,33.686,28.673z"/>
<path fill="#FFFFFF" d="M88.572,44.681H33.709c-4.299,0-7.791,3.491-7.791,7.79c0,4.298,3.492,7.789,7.791,7.789h54.863
	c4.298,0,7.766-3.491,7.766-7.789C96.338,48.172,92.87,44.681,88.572,44.681z"/>
<path fill="#FFFFFF" d="M88.572,76.244H33.709c-4.299,0-7.791,3.491-7.791,7.789c0,4.3,3.492,7.768,7.791,7.768h54.863
	c4.298,0,7.766-3.491,7.766-7.768C96.338,79.735,92.87,76.244,88.572,76.244z"/>
<path fill="#FFFFFF" d="M10.719,13.117h-0.024c-4.299,0-7.79,3.467-7.79,7.766s3.468,7.767,7.79,7.767h0.024
	c4.299,0,7.766-3.468,7.766-7.767S15.018,13.117,10.719,13.117z"/>
<path fill="#FFFFFF" d="M10.719,44.681h-0.024c-4.299,0-7.79,3.491-7.79,7.79c0,4.298,3.468,7.789,7.79,7.789h0.024
	c4.299,0,7.766-3.491,7.766-7.789C18.485,48.172,15.018,44.681,10.719,44.681z"/>
<path fill="#FFFFFF" d="M10.719,76.244h-0.024c-4.299,0-7.79,3.491-7.79,7.789c0,4.3,3.468,7.768,7.79,7.768h0.024
	c4.299,0,7.766-3.491,7.766-7.768C18.485,79.735,15.018,76.244,10.719,76.244z"/>
</svg>
